<?xml version="1.0" encoding="utf-8"?>
<!-- Generator: Adobe Illustrator 27.1.0, SVG Export Plug-In . SVG Version: 6.00 Build 0)  -->
<svg version="1.1" id="Layer_1" xmlns="http://www.w3.org/2000/svg" xmlns:xlink="http://www.w3.org/1999/xlink" x="0px" y="0px"
	width="176" height="100" viewBox="0 0 176 100" style="enable-background:new 0 0 176 100;" xml:space="preserve">
<style type="text/css">
	.st0{fill:#111812;}
</style>
<g>
	<g>
		<path class="st0" d="M21.7,100h-1.8c-0.1,0-0.3,0-0.4-0.1L6.5,91.2c-0.5-0.3-1.1,0-1.1,0.6v7.5c0,0.4-0.3,0.7-0.7,0.7H2.1
			c-0.4,0-0.7-0.3-0.7-0.7V85.6c0-0.4,0.3-0.7,0.7-0.7H4c0.1,0,0.3,0,0.4,0.1l12.9,8.5c0.5,0.3,1.1,0,1.1-0.6v-7.3
			c0-0.4,0.3-0.7,0.7-0.7h2.6c0.4,0,0.7,0.3,0.7,0.7v13.7C22.4,99.7,22.1,100,21.7,100z"/>
		<path class="st0" d="M45.4,99.2c0,0.4-0.3,0.7-0.7,0.7H32.1c-2.4,0-4.3-0.7-5.6-2.3c-1.2-1.3-1.8-3.1-1.8-5.1
			c0-2.1,0.6-3.8,1.9-5.3c1.4-1.6,3.3-2.4,5.6-2.4h12.6c0.4,0,0.7,0.3,0.7,0.7v2.5c0,0.4-0.3,0.7-0.7,0.7H32.1
			c-0.7,0-1.3,0.1-1.8,0.3c-0.7,0.3-0.5,1.3,0.3,1.3h10.3c0.4,0,0.7,0.3,0.7,0.7v2.5c0,0.4-0.3,0.7-0.7,0.7H30.7
			c-0.8,0-1,1.1-0.2,1.4c0.5,0.2,1,0.2,1.6,0.2h12.6c0.4,0,0.7,0.3,0.7,0.7C45.4,96.7,45.4,99.2,45.4,99.2z"/>
		<path class="st0" d="M68.2,99.9h-3.6c-0.2,0-0.4-0.1-0.5-0.2L58.8,95l-5.3,4.8c-0.1,0.1-0.3,0.2-0.5,0.2h-3.6
			c-0.6,0-1-0.8-0.5-1.2l6.8-6.4l-6.8-6.3c-0.5-0.4-0.2-1.2,0.5-1.2H53c0.2,0,0.4,0.1,0.5,0.2l5.3,4.7l0,0l5.3-4.7
			c0.1-0.1,0.3-0.2,0.5-0.2h3.6c0.6,0,1,0.8,0.5,1.2l-6.9,6.3l6.9,6.4C69.1,99.2,68.8,99.9,68.2,99.9z"/>
		<path class="st0" d="M90.7,88.8h-7.1c-0.4,0-0.7,0.3-0.7,0.7v9.8c0,0.4-0.3,0.7-0.7,0.7h-2.6c-0.4,0-0.7-0.3-0.7-0.7v-9.8
			c0-0.4-0.3-0.7-0.7-0.7h-7.1c-0.4,0-0.7-0.3-0.7-0.7v-2.6c0-0.4,0.3-0.7,0.7-0.7h19.6c0.4,0,0.7,0.3,0.7,0.7v2.6
			C91.4,88.5,91.1,88.8,90.7,88.8z"/>
		<path class="st0" d="M127.9,99.2c0,0.4-0.3,0.7-0.7,0.7h-12.6c-2.2,0-4-0.7-5.5-2.1s-2.2-3.2-2.2-5.4s0.7-4,2.2-5.4
			c1.5-1.4,3.3-2.1,5.5-2.1h12.6c0.4,0,0.7,0.3,0.7,0.7V88c0,0.4-0.3,0.7-0.7,0.7h-12.6c-1.1,0-2,0.3-2.7,1c-0.7,0.7-1,1.5-1,2.6
			c0,1.1,0.3,2,1,2.6s1.6,1,2.7,1h8.6c0.4,0,0.7-0.3,0.7-0.7V95c0-0.4-0.3-0.7-0.7-0.7h-8c-0.4,0-0.7-0.3-0.7-0.7v-2.5
			c0-0.4,0.3-0.7,0.7-0.7h12c0.4,0,0.7,0.3,0.7,0.7C127.9,91.1,127.9,99.2,127.9,99.2z"/>
		<path class="st0" d="M150.9,99.2c0,0.4-0.3,0.7-0.7,0.7h-12.6c-2.4,0-4.3-0.7-5.6-2.3c-1.2-1.3-1.8-3.1-1.8-5.1
			c0-2.1,0.6-3.8,1.9-5.3c1.4-1.6,3.3-2.4,5.6-2.4h12.6c0.4,0,0.7,0.3,0.7,0.7v2.5c0,0.4-0.3,0.7-0.7,0.7h-12.6
			c-0.7,0-1.3,0.1-1.8,0.3c-0.7,0.3-0.5,1.3,0.3,1.3h10.3c0.4,0,0.7,0.3,0.7,0.7v2.5c0,0.4-0.3,0.7-0.7,0.7h-10.2
			c-0.8,0-1,1.1-0.2,1.4c0.5,0.2,1,0.2,1.6,0.2h12.6c0.4,0,0.7,0.3,0.7,0.7L150.9,99.2L150.9,99.2z"/>
		<path class="st0" d="M173.9,100h-2l-13.1-8.8c-0.5-0.3-1.1,0-1.1,0.6v7.5c0,0.4-0.3,0.7-0.7,0.7h-2.6c-0.4,0-0.7-0.3-0.7-0.7V85.6
			c0-0.4,0.3-0.7,0.7-0.7h2.1l13.1,8.6c0.5,0.3,1.1,0,1.1-0.6v-7.3c0-0.4,0.3-0.7,0.7-0.7h2.6c0.4,0,0.7,0.3,0.7,0.7v13.7
			C174.6,99.7,174.3,100,173.9,100z"/>
	</g>
	<g>
		<path class="st0" d="M175.1,0l-59.6,74.5c-2.9,3.6-7.2,6-11.8,6.2c-0.2,0-0.5,0-0.8,0c-2.8,0-5.5-0.7-7.9-2c-1.9-1-3.6-2.5-5-4.2
			l-1-1.2L67.8,46.5l-8.1-10.2c-1.1-1.4-3.3-1.4-4.4,0l-27,33.4l-1.4,1.7l-6.7,8.3c-0.4,0.5-1,0.8-1.7,0.9H0.9l3.9-4.8l0,0l5.3-6.6
			l34.2-42.4l1.6-2c0.1-0.2,0.3-0.3,0.4-0.5c0,0,0,0,0,0c5.8-5.7,15-6.1,21.1-1.1c0.4,0.3,0.8,0.7,1.1,1c0,0,0,0,0.1,0.1l2,2.4
			l9.8,12.3l11,13.8l6.1,7.7c0.1,0.2,0.3,0.4,0.5,0.5l2.8,3.5c1.2,1.5,3.5,1.5,4.7,0l10.4-12.8l2.1-2.6l1.4-1.7l0,0l-4.6-5.9
			l-0.4-0.5c-0.3,0.1-0.6,0.1-0.9,0.1c-2,0-3.6-1.6-3.6-3.6c0-2,1.6-3.6,3.6-3.6s3.6,1.6,3.6,3.6c0,0.6-0.1,1.2-0.4,1.7l0.4,0.5
			l4.3,5.4l4.8-6l0,0l17.3-21.9l0.5-0.6l12.4-15.7c0.4-0.5,1-0.8,1.7-0.8L175.1,0L175.1,0z"/>
		<path class="st0" d="M76.1,70.6l-3.2,3.6l-0.1,0.1l-1.8,2.1c-2.8,2.7-6.6,4.2-10.6,4.2c-3.1,0-6-0.9-8.4-2.6c-0.7-0.5-1.3-1-2-1.6
			c-0.1-0.1-0.2-0.2-0.3-0.3l-1-1.1l-0.4-0.5c0,0-3.8-4.4-6.2-7.1l-1.1-1.3l-0.3-0.4c-0.2-0.2-0.2-0.5,0-0.7l0.3-0.4l1.2-1.5
			l6.2-7.8l7.3,8.4l0.1,0.1l1.6,1.9c0.7,0.9,1.8,1.4,3,1.4c1.2,0,2.3-0.5,3.1-1.5l0.6-0.7l4-4.8l0.7-0.9l4.1,5.1l1,1.2l2.1,2.6
			C76.7,68.8,76.7,69.9,76.1,70.6z"/>
		<path class="st0" d="M129,24.1c0.2,0.2,0.2,0.5,0,0.7l-4.6,5.4l-0.3,0.3l-1.8,2.1l-1.2,1.5l-4.4-5.5l-0.4-0.4
			c-0.7-0.9-1.8-1.5-3-1.5c-1.2,0-2.3,0.5-3,1.5l-8.1,10l4.6,5.9l0.4,0.5c0.3-0.1,0.5-0.1,0.8-0.1c2,0,3.6,1.6,3.6,3.6
			c0,1.3-0.7,2.4-1.7,3c-0.1,0-0.1,0.1-0.2,0.1c-0.1,0.1-0.2,0.1-0.3,0.1c-0.3,0.1-0.7,0.2-1,0.3c-0.1,0-0.2,0-0.4,0c0,0,0,0-0.1,0
			c-2,0-3.5-1.6-3.5-3.6c0-0.6,0.2-1.2,0.4-1.7l-0.3-0.4l-4.3-5.4l-0.8,1l-4.3,5.3L94.5,46l-2.3-3L88,37.6c-0.6-0.7-0.6-1.8,0-2.6
			l2.9-3.7L103,17.2c2.8-2.8,6.6-4.3,10.5-4.3c1.9,0,3.8,0.4,5.5,1.1c2,0.8,3.6,2.1,4.9,3.8L129,24.1z"/>
	</g>
</g>
</svg>
