<svg width="72" height="80" viewBox="0 0 72 80" fill="none" xmlns="http://www.w3.org/2000/svg">
<path d="M0.726074 38.8174C0.726074 22.5194 13.9379 9.30762 30.2359 9.30762C41.4383 9.30762 51.183 15.5589 56.1866 24.752C51.1961 15.5589 41.4383 9.30762 30.2359 9.30762C13.9379 9.30762 0.726074 22.5194 0.726074 38.8174C0.726074 55.1155 13.9379 68.3272 30.2359 68.3272C30.7481 68.3272 31.2471 68.3141 31.7593 68.2878C31.2603 68.3141 30.7481 68.3272 30.2359 68.3272C13.9379 68.3272 0.726074 55.1155 0.726074 38.8174Z" fill="url(#paint0_linear_2254_4826)"/>
<path d="M0.726074 38.8174C0.726074 22.5194 13.9379 9.30762 30.2359 9.30762C41.4383 9.30762 51.183 15.5589 56.1866 24.752C51.1961 15.5589 41.4383 9.30762 30.2359 9.30762C13.9379 9.30762 0.726074 22.5194 0.726074 38.8174C0.726074 55.1155 13.9379 68.3272 30.2359 68.3272C30.7481 68.3272 31.2471 68.3141 31.7593 68.2878C31.2603 68.3141 30.7481 68.3272 30.2359 68.3272C13.9379 68.3272 0.726074 55.1155 0.726074 38.8174Z" fill="url(#paint1_linear_2254_4826)"/>
<path d="M0.726074 38.8174C0.726074 22.5194 13.9379 9.30762 30.2359 9.30762C41.4383 9.30762 51.183 15.5589 56.1866 24.752C51.1961 15.5589 41.4383 9.30762 30.2359 9.30762C13.9379 9.30762 0.726074 22.5194 0.726074 38.8174C0.726074 55.1155 13.9379 68.3272 30.2359 68.3272C30.7481 68.3272 31.2471 68.3141 31.7593 68.2878C31.2603 68.3141 30.7481 68.3272 30.2359 68.3272C13.9379 68.3272 0.726074 55.1155 0.726074 38.8174Z" fill="url(#paint2_linear_2254_4826)"/>
<path d="M63.8956 41.0635H60.3365C59.2334 55.9431 47.3612 67.8154 32.4946 68.9054V72.4644C32.4946 77.258 36.9467 80.8958 41.622 79.8058C56.2785 76.3649 67.8092 64.8342 71.2369 50.1909C72.3401 45.5156 68.7023 41.0635 63.8956 41.0635Z" fill="url(#paint3_linear_2254_4826)"/>
<path d="M30.0517 8.62512V3.88411C30.0517 1.58584 28.0686 -0.226517 25.7835 0.02301C17.9956 0.850388 10.8644 3.93664 5.08589 8.61198C3.29981 10.0435 3.19474 12.7226 4.8101 14.3511L8.42167 17.9627C13.8719 12.2367 21.5415 8.66451 30.0517 8.62512Z" fill="url(#paint4_linear_2254_4826)"/>
<path d="M60.337 41.0635H38.221C35.056 41.0635 32.4819 43.6244 32.4819 46.8026V68.9185C47.3747 67.8154 59.247 55.9431 60.337 41.0635Z" fill="url(#paint5_linear_2254_4826)"/>
<path d="M30.0523 30.2288V8.625C21.5422 8.67753 13.8725 12.2497 8.40918 17.9494L23.4333 32.9735C25.876 35.4163 30.0523 33.6827 30.0523 30.2288Z" fill="url(#paint6_linear_2254_4826)"/>
<path d="M30.2357 8.6123C13.5568 8.6123 0.0429688 22.1261 0.0429688 38.805C0.0429687 55.4839 13.5568 69.0109 30.2357 69.0109C46.9146 69.0109 60.4284 55.497 60.4284 38.8182C60.4284 22.1393 46.9146 8.6123 30.2357 8.6123ZM33.2563 68.1704C32.9805 68.1966 32.6916 68.2098 32.4158 68.236C32.1925 68.2492 31.9824 68.2754 31.7591 68.2886C31.2601 68.3148 30.7479 68.328 30.2357 68.328C13.9377 68.328 0.725884 55.1162 0.725884 38.8182C0.725884 22.5201 13.9377 9.30835 30.2357 9.30835C41.4381 9.30835 51.1828 15.5597 56.1865 24.7527C58.4585 28.929 59.7455 33.7226 59.7455 38.8182C59.7455 54.0918 48.1359 66.6601 33.2563 68.1704Z" fill="white"/>
<g filter="url(#filter0_b_2254_4826)">
<path d="M59.7457 38.8179C59.7457 33.7223 58.4587 28.9288 56.1866 24.7525C51.183 15.5594 41.4383 9.30811 30.2359 9.30811C13.9379 9.30811 0.726074 22.5199 0.726074 38.8179C0.726074 55.1159 13.9379 68.3277 30.2359 68.3277C30.7481 68.3277 31.2471 68.3146 31.7593 68.2883C31.9826 68.2752 32.1927 68.2489 32.416 68.2358C32.6917 68.2095 32.9807 68.1964 33.2565 68.1701C48.1361 66.6598 59.7457 54.0916 59.7457 38.8179Z" fill="url(#paint7_linear_2254_4826)"/>
</g>
<defs>
<filter id="filter0_b_2254_4826" x="-1.27393" y="7.30811" width="63.0195" height="63.0195" filterUnits="userSpaceOnUse" color-interpolation-filters="sRGB">
<feFlood flood-opacity="0" result="BackgroundImageFix"/>
<feGaussianBlur in="BackgroundImageFix" stdDeviation="1"/>
<feComposite in2="SourceAlpha" operator="in" result="effect1_backgroundBlur_2254_4826"/>
<feBlend mode="normal" in="SourceGraphic" in2="effect1_backgroundBlur_2254_4826" result="shape"/>
</filter>
<linearGradient id="paint0_linear_2254_4826" x1="46.7595" y1="55.3344" x2="7.27811" y2="15.853" gradientUnits="userSpaceOnUse">
<stop stop-color="white" stop-opacity="0"/>
<stop offset="1" stop-color="white"/>
</linearGradient>
<linearGradient id="paint1_linear_2254_4826" x1="47.2162" y1="55.7912" x2="6.64615" y2="15.221" gradientUnits="userSpaceOnUse">
<stop stop-color="white" stop-opacity="0"/>
<stop offset="1" stop-color="white"/>
</linearGradient>
<linearGradient id="paint2_linear_2254_4826" x1="46.3846" y1="54.9596" x2="7.80133" y2="16.3763" gradientUnits="userSpaceOnUse">
<stop stop-color="white" stop-opacity="0"/>
<stop offset="1" stop-color="white"/>
</linearGradient>
<linearGradient id="paint3_linear_2254_4826" x1="55.9391" y1="71.5857" x2="46.173" y2="44.4053" gradientUnits="userSpaceOnUse">
<stop stop-color="#E37137"/>
<stop offset="0.4747" stop-color="#E7DE00"/>
<stop offset="1" stop-color="#FFB600"/>
</linearGradient>
<linearGradient id="paint4_linear_2254_4826" x1="34.3216" y1="29.2414" x2="15.0247" y2="5.47333" gradientUnits="userSpaceOnUse">
<stop stop-color="#E37137"/>
<stop offset="0.4747" stop-color="#E7DE00"/>
<stop offset="1" stop-color="#FFB600"/>
</linearGradient>
<linearGradient id="paint5_linear_2254_4826" x1="52.7868" y1="72.7184" x2="43.0208" y2="45.5381" gradientUnits="userSpaceOnUse">
<stop stop-color="#E37137"/>
<stop offset="0.4747" stop-color="#E7DE00"/>
<stop offset="1" stop-color="#FFB600"/>
</linearGradient>
<linearGradient id="paint6_linear_2254_4826" x1="33.0384" y1="30.2837" x2="13.7414" y2="6.51558" gradientUnits="userSpaceOnUse">
<stop stop-color="#E37137"/>
<stop offset="0.4747" stop-color="#E7DE00"/>
<stop offset="1" stop-color="#FFB600"/>
</linearGradient>
<linearGradient id="paint7_linear_2254_4826" x1="51.1303" y1="56.5343" x2="6.47816" y2="21.7319" gradientUnits="userSpaceOnUse">
<stop stop-color="#D9D9D9" stop-opacity="0.2"/>
<stop offset="1" stop-color="#D9D9D9"/>
</linearGradient>
</defs>
</svg>
