<svg width="34" height="34" viewBox="0 0 34 34" fill="none" xmlns="http://www.w3.org/2000/svg">
<mask id="mask0_2251_3064" style="mask-type:alpha" maskUnits="userSpaceOnUse" x="0" y="0" width="34" height="34">
<rect width="34" height="34" fill="#D9D9D9"/>
</mask>
<g mask="url(#mask0_2251_3064)">
<path d="M10.8281 18.7C10.4328 18.7 10.0989 18.5367 9.82638 18.2101C9.55411 17.8832 9.41797 17.4827 9.41797 17.0086C9.41797 16.5345 9.55411 16.1312 9.82638 15.7985C10.0989 15.4662 10.4328 15.3 10.8281 15.3H21.6079C22.0032 15.3 22.3371 15.4633 22.6096 15.7899C22.8818 16.1168 23.018 16.5173 23.018 16.9914C23.018 17.4655 22.8818 17.8688 22.6096 18.2015C22.3371 18.5338 22.0032 18.7 21.6079 18.7H10.8281Z" fill="#595959"/>
<path d="M16.516 31.176C14.599 31.176 12.7973 30.8145 11.1107 30.0915C9.42395 29.3685 7.94825 28.3749 6.68364 27.1105C5.41927 25.8459 4.42559 24.3708 3.70262 22.6852C2.97965 20.9996 2.61816 19.1951 2.61816 17.2717C2.61816 15.3486 2.97965 13.5497 3.70262 11.875C4.42559 10.2 5.41927 8.73019 6.68364 7.46558C7.94825 6.2012 9.42336 5.20753 11.109 4.48456C12.7946 3.76159 14.599 3.4001 16.5224 3.4001C18.4455 3.4001 20.2444 3.76159 21.9192 4.48456C23.5942 5.20753 25.064 6.2012 26.3286 7.46558C27.5929 8.73019 28.5866 10.2026 29.3096 11.8827C30.0326 13.5629 30.394 15.3614 30.394 17.2781C30.394 19.1951 30.0326 20.9969 29.3096 22.6834C28.5866 24.3702 27.5929 25.8459 26.3286 27.1105C25.064 28.3749 23.5916 29.3685 21.9114 30.0915C20.2312 30.8145 18.4328 31.176 16.516 31.176ZM16.5061 28.2364C19.5529 28.2364 22.1394 27.1734 24.2655 25.0475C26.3915 22.9213 27.4545 20.3348 27.4545 17.288C27.4545 14.2413 26.3915 11.6548 24.2655 9.5286C22.1394 7.40266 19.5529 6.33968 16.5061 6.33968C13.4593 6.33968 10.8728 7.40266 8.74666 9.5286C6.62072 11.6548 5.55775 14.2413 5.55775 17.288C5.55775 20.3348 6.62072 22.9213 8.74666 25.0475C10.8728 27.1734 13.4593 28.2364 16.5061 28.2364Z" fill="#595959"/>
</g>
</svg>
