<?xml version="1.0" encoding="utf-8"?>
<!-- Generator: Adobe Illustrator 27.1.0, SVG Export Plug-In . SVG Version: 6.00 Build 0)  -->
<svg version="1.1" id="Layer_1" xmlns="http://www.w3.org/2000/svg" xmlns:xlink="http://www.w3.org/1999/xlink" x="0px" y="0px"
	 viewBox="0 0 24 24" style="enable-background:new 0 0 24 24;" xml:space="preserve">
<g>
	<path d="M17.58,12.87H6.68c-0.26,0-0.47,0.21-0.47,0.47c0,0.26,0.21,0.47,0.47,0.47h10.9c0.26,0,0.47-0.21,0.47-0.47
		C18.05,13.08,17.84,12.87,17.58,12.87z"/>
	<path d="M17.58,10.45H6.68c-0.26,0-0.47,0.21-0.47,0.47c0,0.26,0.21,0.47,0.47,0.47h10.9c0.26,0,0.47-0.21,0.47-0.47
		C18.05,10.67,17.84,10.45,17.58,10.45z"/>
	<path d="M17.58,8.04H6.68c-0.26,0-0.47,0.21-0.47,0.47s0.21,0.47,0.47,0.47h10.9c0.26,0,0.47-0.21,0.47-0.47S17.84,8.04,17.58,8.04
		z"/>
	<path d="M18.41,5.51l-12.78,0l-0.04,0C4.73,5.51,4.03,6.18,4,7.05v7.75c0.03,0.85,0.74,1.54,1.59,1.54l0.72,0l0.03,0
		c0.34,0,0.63,0.27,0.65,0.6c-0.01,0.58,0.33,1.11,0.91,1.38c0.24,0.11,0.5,0.17,0.76,0.17c0.39,0,0.75-0.13,1.02-0.37l2-1.62
		c0.13-0.1,0.3-0.16,0.47-0.16h6.22l0.04,0c0.87,0,1.56-0.68,1.59-1.55V7.05C19.97,6.18,19.27,5.51,18.41,5.51z M19.06,7.06v7.73
		c-0.02,0.34-0.31,0.61-0.65,0.61l-6.27,0c-0.38,0-0.76,0.13-1.05,0.37l-2,1.62c-0.23,0.18-0.53,0.22-0.79,0.09
		c-0.23-0.11-0.36-0.31-0.37-0.54C7.9,16.09,7.19,15.4,6.34,15.4l-0.72,0l-0.03,0c-0.35,0-0.63-0.27-0.65-0.61V7.07
		c0.02-0.35,0.3-0.62,0.65-0.62l12.78,0l0.03,0C18.75,6.45,19.04,6.72,19.06,7.06z"/>
</g>
</svg>
