<?xml version="1.0" encoding="utf-8"?>
<!-- Generator: Adobe Illustrator 27.1.0, SVG Export Plug-In . SVG Version: 6.00 Build 0)  -->
<svg version="1.1" id="Layer_1" xmlns="http://www.w3.org/2000/svg" xmlns:xlink="http://www.w3.org/1999/xlink" x="0px" y="0px"
	 viewBox="0 0 24 24" style="enable-background:new 0 0 24 24;" xml:space="preserve">
<g>
	<path d="M18.58,9.87l-5.55-5.45c-0.57-0.56-1.49-0.56-2.06,0L5.42,9.87c-0.44,0.43-0.56,1.04-0.33,1.61
		c0.17,0.43,0.52,0.73,0.97,0.85v5.31c0,1.3,1.06,2.36,2.36,2.36h7.16c1.3,0,2.36-1.06,2.36-2.36v-5.31
		c0.44-0.12,0.8-0.42,0.97-0.85C19.15,10.91,19.02,10.3,18.58,9.87z M16.8,17.64c0,0.67-0.55,1.22-1.22,1.22H8.42
		c-0.67,0-1.22-0.55-1.22-1.22v-5.25h9.6L16.8,17.64z M17.86,11.04c-0.02,0.06-0.1,0.2-0.3,0.2H6.45c-0.2,0-0.28-0.14-0.3-0.2
		c-0.03-0.06-0.07-0.22,0.07-0.36l5.56-5.45c0.06-0.06,0.14-0.09,0.23-0.09c0.09,0,0.17,0.03,0.23,0.09l5.55,5.45
		C17.93,10.82,17.88,10.98,17.86,11.04z"/>
	<path d="M12,18.28c0.31,0,0.57-0.26,0.57-0.57v-1.64c0-0.32-0.26-0.57-0.57-0.57s-0.57,0.26-0.57,0.57v1.64
		C11.43,18.03,11.69,18.28,12,18.28z"/>
</g>
</svg>
