<?xml version="1.0" encoding="utf-8"?>
<!-- Generator: Adobe Illustrator 27.1.0, SVG Export Plug-In . SVG Version: 6.00 Build 0)  -->
<svg version="1.1" id="Layer_1" xmlns="http://www.w3.org/2000/svg" xmlns:xlink="http://www.w3.org/1999/xlink" x="0px" y="0px"
	 viewBox="0 0 24 24" style="enable-background:new 0 0 24 24;" xml:space="preserve">
<path d="M15.65,20c-0.04,0-0.08,0-0.12,0c-0.77-0.02-1.52-0.17-2.24-0.46c-1.57-0.58-3.23-1.7-4.68-3.15
	c-1.45-1.46-2.57-3.13-3.15-4.69C4.78,9.88,4.86,8.34,5.69,7.36c0.44-0.39,0.9-0.62,1.4-0.74C7.61,6.5,8.16,6.51,8.68,6.65
	c0.37,0.11,0.66,0.41,0.75,0.78c0.24,0.92,0.63,1.79,1.15,2.59c0.2,0.33,0.22,0.74,0.04,1.07c-0.15,0.3-0.35,0.58-0.6,0.82
	c-0.15,0.15-0.31,0.28-0.48,0.4c0.44,0.6,0.93,1.17,1.45,1.69c0.53,0.53,1.09,1.02,1.69,1.45c0.12-0.17,0.25-0.34,0.4-0.49
	c0.24-0.24,0.52-0.44,0.83-0.6c0.33-0.17,0.74-0.15,1.05,0.06c0.81,0.52,1.68,0.91,2.61,1.16c0.37,0.09,0.67,0.38,0.77,0.75
	c0,0,0,0,0,0c0.14,0.51,0.14,1.06,0.02,1.58c-0.12,0.48-0.35,0.94-0.67,1.31c-0.02,0.02-0.06,0.06-0.08,0.08
	C17.05,19.76,16.36,20,15.65,20z M7.83,7.49c-0.17,0-0.35,0.02-0.52,0.06C6.96,7.63,6.64,7.8,6.37,8.03
	C5.82,8.69,5.8,9.89,6.35,11.37c0.53,1.44,1.57,2.98,2.93,4.35c1.35,1.36,2.89,2.39,4.34,2.93c0.62,0.25,1.27,0.38,1.93,0.4
	c0.55,0.02,1.05-0.15,1.47-0.47c0.17-0.21,0.34-0.53,0.42-0.87c0.09-0.37,0.09-0.75-0.01-1.1c-0.01-0.04-0.04-0.07-0.09-0.08
	c-1.03-0.27-2-0.71-2.89-1.28c-0.03-0.02-0.07-0.02-0.11,0c-0.22,0.11-0.41,0.25-0.58,0.41c-0.2,0.2-0.36,0.44-0.47,0.7
	c-0.06,0.13-0.17,0.23-0.3,0.27c-0.14,0.04-0.28,0.02-0.4-0.06c-0.81-0.55-1.57-1.18-2.26-1.87C9.63,13.99,9,13.23,8.45,12.42
	c-0.08-0.12-0.1-0.27-0.06-0.4c0.04-0.14,0.14-0.25,0.27-0.3c0.26-0.11,0.5-0.27,0.7-0.47c0.17-0.17,0.31-0.36,0.42-0.57
	c0.02-0.05,0.02-0.09,0-0.13c-0.57-0.87-1-1.84-1.27-2.87c-0.01-0.05-0.04-0.09-0.09-0.1C8.23,7.52,8.03,7.49,7.83,7.49z"/>
<g>
	<path d="M20.25,12.5c-0.27-0.01-0.49-0.21-0.51-0.49c-0.3-3.74-3.23-6.67-6.97-6.97c-0.28-0.02-0.49-0.24-0.49-0.52
		C12.28,4.24,12.52,4,12.8,4c4.3,0.34,7.63,3.67,7.97,7.93c0.03,0.28-0.18,0.54-0.46,0.56l-0.05,0L20.25,12.5z"/>
	<path d="M17.74,12.47c-0.26,0-0.47-0.19-0.5-0.45c-0.27-2.37-2.12-4.21-4.49-4.48c-0.24-0.03-0.43-0.23-0.44-0.47
		c0-0.01,0-0.03,0-0.04c0-0.28,0.23-0.52,0.51-0.52c2.9,0.33,5.11,2.54,5.44,5.38c0.03,0.28-0.17,0.54-0.45,0.57L17.74,12.47z"/>
	<path d="M15.17,12.44c-0.24,0-0.46-0.18-0.5-0.41c-0.23-0.96-0.96-1.69-1.91-1.91c-0.25-0.05-0.42-0.26-0.42-0.5
		c0-0.15,0.05-0.28,0.15-0.37c0.1-0.1,0.22-0.15,0.36-0.15l0,0c0.04,0,0.08,0,0.11,0.01c0.98,0.22,1.83,0.84,2.34,1.7
		c0.19,0.32,0.33,0.67,0.4,1.04c0.05,0.27-0.12,0.54-0.4,0.59l-0.1,0.01H15.17z"/>
</g>
</svg>
