<?xml version="1.0" encoding="utf-8"?>
<!-- Generator: Adobe Illustrator 27.1.0, SVG Export Plug-In . SVG Version: 6.00 Build 0)  -->
<svg version="1.1" id="Layer_1" xmlns="http://www.w3.org/2000/svg" xmlns:xlink="http://www.w3.org/1999/xlink" x="0px" y="0px"
	 viewBox="0 0 24 24" style="enable-background:new 0 0 24 24;" xml:space="preserve">
<path d="M11.99,19.9c-0.36,0-0.73-0.03-1.09-0.07c-3.68-0.52-6.46-3.47-6.77-7.17c-0.36-4.34,2.88-8.17,7.22-8.53
	c0.22-0.02,0.44-0.03,0.66-0.03c4.07,0,7.53,3.18,7.86,7.25c0.08,0.95-0.02,1.89-0.28,2.8c-0.15,0.51-0.46,0.94-0.88,1.26
	c-0.43,0.33-0.95,0.5-1.49,0.5c-0.78,0-1.5-0.36-1.97-0.98c-0.07-0.09-0.17-0.15-0.29-0.16c0,0,0,0,0,0c-0.14,0-0.24,0.04-0.32,0.11
	c-0.72,0.67-1.67,1.04-2.65,1.04c-0.87,0-1.73-0.3-2.41-0.83c-0.82-0.64-1.34-1.57-1.47-2.61c-0.13-1.04,0.16-2.06,0.8-2.88
	c0.75-0.95,1.87-1.5,3.08-1.5c0.88,0,1.71,0.29,2.41,0.83c0.07,0.06,0.16,0.09,0.25,0.09c0.1,0,0.2-0.04,0.28-0.11
	c0.11-0.1,0.25-0.15,0.39-0.15c0.16,0,0.3,0.06,0.41,0.17c0.11,0.11,0.17,0.26,0.17,0.41v2.53l0.01,0.14l-0.01,0.11v1.31
	c0,0.57,0.37,1.07,0.91,1.25c0.13,0.04,0.26,0.06,0.4,0.06c0.57,0,1.08-0.37,1.25-0.91c0.22-0.78,0.3-1.58,0.24-2.38
	c-0.09-1.07-0.44-2.11-1.01-3.02c-1.24-1.97-3.37-3.15-5.7-3.15c-1.26,0-2.5,0.36-3.57,1.03c-1.52,0.95-2.58,2.44-2.98,4.2
	c-0.4,1.75-0.1,3.56,0.86,5.07c1.24,1.97,3.37,3.15,5.7,3.15c1.26,0,2.5-0.36,3.57-1.03c0.13-0.08,0.23-0.11,0.34-0.11
	c0.21,0,0.4,0.11,0.5,0.29c0.08,0.14,0.1,0.29,0.07,0.44c-0.04,0.15-0.13,0.28-0.27,0.36c-1.27,0.8-2.72,1.22-4.21,1.22H11.99z
	 M11.99,9.26c-1.51,0-2.74,1.24-2.73,2.75c0,1.51,1.23,2.73,2.74,2.73c1.49,0,2.7-1.17,2.74-2.66v-0.15
	C14.69,10.43,13.49,9.26,11.99,9.26L11.99,9.26z"/>
</svg>
