<?xml version="1.0" encoding="utf-8"?>
<!-- Generator: Adobe Illustrator 27.1.0, SVG Export Plug-In . SVG Version: 6.00 Build 0)  -->
<svg version="1.1" id="Layer_1" xmlns="http://www.w3.org/2000/svg" xmlns:xlink="http://www.w3.org/1999/xlink" x="0px" y="0px"
	 viewBox="0 0 36 36" style="enable-background:new 0 0 36 36;" xml:space="preserve">
<style type="text/css">
	.st0{fill:#111812;}
	.st1{fill:#FDFFFC;}
	.st2{fill:#F0A900;}
	.st3{fill:none;}
	.st4{fill:#E69F2D;}
</style>
<g>
	<path class="st0" d="M25.03,3H10.97C6.58,3,3,6.58,3,10.97v14.05C3,29.42,6.58,33,10.97,33h14.05c4.4,0,7.97-3.58,7.97-7.97V10.97
		C33,6.58,29.42,3,25.03,3z M10.97,29.75c-2.61,0-4.73-2.12-4.73-4.73V10.97c0-2.61,2.12-4.73,4.73-4.73h14.05
		c2.61,0,4.73,2.12,4.73,4.73v14.05c0,2.61-2.12,4.73-4.73,4.73H10.97z"/>
	<path class="st0" d="M20.89,9.37c-1.6-1.6-4.19-1.6-5.79,0c-1.6,1.6-1.6,4.18,0,5.78c1.07,1.07,2.59,1.43,3.96,1.06l8.59,8.59
		c0.29,0.29,0.79,0.09,0.79-0.33v-4.11c0-0.36-0.14-0.7-0.4-0.95l-6.09-6.09C22.32,11.96,21.96,10.44,20.89,9.37z"/>
	<path class="st2" d="M15.11,26.63c1.6,1.6,4.19,1.6,5.79,0c1.6-1.6,1.6-4.18,0-5.78c-1.07-1.07-2.59-1.43-3.96-1.06l-8.59-8.59
		c-0.29-0.29-0.79-0.09-0.79,0.33v4.11c0,0.36,0.14,0.7,0.4,0.95l6.09,6.09C13.68,24.04,14.03,25.56,15.11,26.63z"/>
</g>
</svg>
